Coordinates
version=1
nRows=128
nColumns=11
inDegrees=no

Units are S.I. units (second, meters, Newtons, ...)
If the header above contains a line with 'inDegrees', this indicates whether rotational values are in degrees (yes) or radians (no).

endheader
time	pelvis_tilt	pelvis_tx	pelvis_ty	hip_flexion_r	knee_angle_r	ankle_angle_r	hip_flexion_l	knee_angle_l	ankle_angle_l	lumbar_extension
316.48	0.0615735	0.207997	1.01409	-0.0900792	-0.235805	0.243412	0.342049	-0.785788	0.0973971	0
316.49	0.0598035	0.206938	1.01364	-0.10635	-0.227229	0.250326	0.34017	-0.72028	0.100796	0
316.5	0.0594146	0.206069	1.01299	-0.124302	-0.219031	0.257781	0.332504	-0.64943	0.10095	0
316.51	0.0589064	0.205663	1.01187	-0.142715	-0.209797	0.266462	0.323411	-0.57549	0.097934	0
316.52	0.057706	0.205386	1.01011	-0.159521	-0.202146	0.277195	0.315195	-0.500791	0.0959907	0
316.53	0.0585949	0.205098	1.00821	-0.179653	-0.195549	0.287453	0.302895	-0.426057	0.0977641	0
316.54	0.0571863	0.204473	1.00593	-0.194911	-0.191669	0.30087	0.292176	-0.347949	0.100084	0
316.55	0.0560201	0.204574	1.00336	-0.210751	-0.188086	0.314732	0.282221	-0.275102	0.103317	0
316.56	0.0542237	0.204268	1.00066	-0.224342	-0.18583	0.327691	0.271747	-0.201958	0.104546	0
316.57	0.0516849	0.204098	0.997764	-0.235568	-0.185566	0.340427	0.261625	-0.130894	0.106729	0
316.58	0.0506087	0.204012	0.994758	-0.248315	-0.187128	0.35461	0.250499	-0.067151	0.108453	0
316.59	0.0493726	0.204071	0.991828	-0.262746	-0.186492	0.367399	0.240277	-0.0116282	0.112487	0
316.6	0.0689153	0.207202	0.990839	-0.301159	-0.192504	0.377938	0.20749	0.0294032	0.120192	0
316.61	0.0700437	0.208202	0.988544	-0.318312	-0.192473	0.384637	0.19768	0.0639554	0.128843	0
316.62	0.0704003	0.208821	0.986046	-0.331026	-0.198826	0.394497	0.190767	0.0853986	0.141684	0
316.63	0.0696289	0.209315	0.983482	-0.339736	-0.210045	0.40338	0.187513	0.0918388	0.149442	0
316.64	0.0698701	0.210073	0.981254	-0.347881	-0.224982	0.407616	0.189521	0.0744746	0.152423	0
316.65	0.0697088	0.210753	0.979296	-0.352797	-0.244792	0.40915	0.19674	0.0422603	0.142803	0
316.66	0.0705021	0.211577	0.977598	-0.357071	-0.267008	0.408447	0.20366	0.00703476	0.128447	0
316.67	0.0701634	0.212449	0.97593	-0.357043	-0.294569	0.406797	0.213228	-0.0290698	0.108627	0
316.68	0.0711947	0.21387	0.974521	-0.354053	-0.328969	0.402608	0.220582	-0.0608979	0.0749358	0
316.69	0.0676147	0.213784	0.973119	-0.345585	-0.364532	0.393346	0.226685	-0.0819106	0.0349662	0
316.7	0.0673757	0.214687	0.972139	-0.337722	-0.404807	0.379449	0.229519	-0.103669	-0.00114306	0
316.71	0.0671368	0.215601	0.971531	-0.325551	-0.451625	0.360165	0.235652	-0.131068	-0.0233459	0
316.72	0.053403	0.214906	0.970357	-0.296136	-0.496839	0.330883	0.256966	-0.156798	-0.0275277	0
316.73	0.068966	0.217667	0.97128	-0.29396	-0.559288	0.294947	0.247987	-0.197861	-0.0176931	0
316.74	0.0695358	0.218403	0.971858	-0.270864	-0.61994	0.244751	0.252858	-0.231074	-0.00252803	0
316.75	0.0704882	0.218849	0.972837	-0.244254	-0.681656	0.182334	0.253985	-0.259842	0.0163387	0
316.76	0.0711688	0.219505	0.97387	-0.214144	-0.744003	0.117865	0.251786	-0.28284	0.0367928	0
316.77	0.0690635	0.219456	0.974886	-0.177324	-0.807971	0.0599209	0.248811	-0.298201	0.0541506	0
316.78	0.0515101	0.217117	0.97536	-0.121777	-0.863539	0.0179441	0.2608	-0.303434	0.0705495	0
316.79	0.0491686	0.216187	0.977125	-0.0858534	-0.915734	-0.00182564	0.251719	-0.306696	0.0844713	0
316.8	0.0475677	0.215327	0.979346	-0.053046	-0.961099	0.00182537	0.238724	-0.305569	0.0953591	0
316.81	0.0600726	0.216697	0.982561	-0.0380085	-1.00324	0.0144608	0.207849	-0.305882	0.105093	0
316.82	0.058098	0.215469	0.985222	-0.00290013	-1.04135	0.0214584	0.194277	-0.301688	0.112051	0
316.83	0.0533384	0.213392	0.987847	0.0349281	-1.07209	0.0228999	0.184362	-0.297627	0.118705	0
316.84	0.057264	0.213584	0.990787	0.0611038	-1.09671	0.0204277	0.163404	-0.292905	0.128017	0
316.85	0.0561393	0.212623	0.993727	0.0901945	-1.11342	0.0167625	0.145342	-0.284979	0.141254	0
316.86	0.0629058	0.213306	0.997147	0.109088	-1.12455	0.0139817	0.116988	-0.27471	0.146572	0
316.87	0.0622628	0.212178	1.00023	0.136241	-1.12835	0.0155152	0.0941345	-0.255241	0.144814	0
316.88	0.0443584	0.208184	1.00225	0.183298	-1.12368	0.0222467	0.0910084	-0.230013	0.142554	0
316.89	0.0441432	0.207096	1.00488	0.204208	-1.11272	0.0316564	0.0719438	-0.219939	0.14611	0
316.9	0.0430293	0.205666	1.00702	0.226921	-1.0994	0.0407298	0.0538859	-0.209154	0.150897	0
316.91	0.063955	0.207726	1.01023	0.218701	-1.08301	0.0517966	0.00686005	-0.199453	0.157726	0
316.92	0.0659646	0.206959	1.01223	0.232983	-1.05831	0.0696999	-0.0209209	-0.177202	0.161537	0
316.93	0.0621601	0.204847	1.01351	0.255967	-1.03208	0.0777152	-0.0336204	-0.167879	0.162125	0
316.94	0.0358428	0.199045	1.01311	0.305979	-0.997332	0.0875257	-0.0200735	-0.149569	0.158757	0
316.95	0.0375335	0.198332	1.01422	0.314966	-0.957317	0.0948764	-0.0408373	-0.139429	0.161971	0
316.96	0.0366195	0.19693	1.01462	0.326445	-0.914479	0.101199	-0.0580693	-0.130485	0.17056	0
316.97	0.0351895	0.195537	1.01466	0.338716	-0.870348	0.104631	-0.0733743	-0.122723	0.179758	0
316.98	0.034841	0.194411	1.0147	0.345978	-0.820363	0.109399	-0.0904663	-0.114417	0.186405	0
316.99	0.0338841	0.193089	1.01449	0.351272	-0.765583	0.114657	-0.105054	-0.109364	0.191568	0
317	0.0342413	0.191996	1.01385	0.351854	-0.705308	0.120495	-0.123847	-0.100927	0.201282	0
317.01	0.0339036	0.191188	1.01267	0.35148	-0.641928	0.124264	-0.140337	-0.0949336	0.216334	0
317.02	0.0348432	0.191036	1.01146	0.34659	-0.575481	0.123385	-0.157105	-0.0924079	0.229654	0
317.03	0.0357411	0.190996	1.00995	0.34035	-0.506668	0.122072	-0.175645	-0.0873692	0.238657	0
317.04	0.0366927	0.191052	1.00816	0.331426	-0.433847	0.122018	-0.196259	-0.0789808	0.249056	0
317.05	0.0376572	0.191088	1.00605	0.322187	-0.361542	0.123099	-0.216353	-0.0709618	0.263263	0
317.06	0.0391431	0.191313	1.00389	0.312408	-0.292356	0.122112	-0.233316	-0.0698566	0.278549	0
317.07	0.0407089	0.191807	1.00163	0.302505	-0.226965	0.124079	-0.248454	-0.073374	0.293093	0
317.08	0.0399234	0.192006	0.998772	0.295162	-0.164032	0.130799	-0.260546	-0.0767025	0.305642	0
317.09	0.0408914	0.192367	0.996038	0.285706	-0.10716	0.138774	-0.274852	-0.080709	0.320301	0
317.1	0.0420357	0.192764	0.993393	0.277127	-0.0590056	0.144946	-0.290295	-0.0824771	0.334176	0
317.11	0.0431804	0.193254	0.990922	0.270971	-0.0222635	0.151707	-0.305734	-0.0847803	0.346041	0
317.12	0.0445503	0.19402	0.988508	0.267684	0.000299633	0.158853	-0.320731	-0.0895023	0.356946	0
317.13	0.044898	0.194304	0.986008	0.266492	0.0119453	0.163988	-0.330933	-0.100308	0.369786	0
317.14	0.070763	0.198226	0.98572	0.238796	0.00148442	0.17197	-0.369542	-0.119679	0.381047	0
317.15	0.0729506	0.199016	0.983599	0.237398	-0.011171	0.172314	-0.380073	-0.133794	0.387773	0
317.16	0.0556269	0.19773	0.979915	0.259209	-0.0261537	0.168588	-0.36565	-0.146031	0.393411	0
317.17	0.075119	0.200892	0.979494	0.240792	-0.0607529	0.154922	-0.388478	-0.180786	0.403055	0
317.18	0.0772134	0.202183	0.97801	0.24171	-0.0878201	0.135883	-0.394384	-0.203214	0.404745	0
317.19	0.077844	0.202986	0.976846	0.246014	-0.114158	0.11012	-0.396513	-0.228232	0.402619	0
317.2	0.078633	0.203922	0.975868	0.249389	-0.136676	0.0756688	-0.397552	-0.255495	0.39736	0
317.21	0.0816397	0.205775	0.975133	0.245685	-0.152079	0.035934	-0.401057	-0.284171	0.387799	0
317.22	0.0851664	0.208006	0.974604	0.23956	-0.164765	-0.000948147	-0.402687	-0.317266	0.378103	0
317.23	0.089059	0.210132	0.974601	0.237778	-0.188584	-0.0186695	-0.402253	-0.352853	0.360523	0
317.24	0.0918452	0.211824	0.97475	0.241562	-0.223712	-0.0134282	-0.395195	-0.396106	0.336203	0
317.25	0.0938814	0.213041	0.975205	0.245999	-0.259912	-0.000265045	-0.381009	-0.448644	0.303564	0
317.26	0.100539	0.215348	0.976111	0.24086	-0.290657	0.0173353	-0.36814	-0.506176	0.261275	0
317.27	0.103679	0.216627	0.977468	0.235176	-0.314682	0.0365383	-0.34962	-0.563601	0.2083	0
317.28	0.106691	0.218494	0.978847	0.227131	-0.333152	0.0560471	-0.324103	-0.626585	0.152128	0
317.29	0.106862	0.218593	0.980436	0.218974	-0.346296	0.074826	-0.291053	-0.692136	0.0872909	0
317.3	0.107397	0.21902	0.981978	0.208914	-0.355967	0.0942061	-0.256282	-0.754916	0.0152456	0
317.31	0.106271	0.218722	0.983531	0.200435	-0.363739	0.108357	-0.215432	-0.819164	-0.0601264	0
317.32	0.104695	0.218536	0.985002	0.189875	-0.367346	0.127668	-0.172749	-0.883013	-0.130457	0
317.33	0.101536	0.218109	0.986533	0.179593	-0.367849	0.143599	-0.128921	-0.942411	-0.186964	0
317.34	0.0835194	0.215202	0.987399	0.187642	-0.363211	0.153804	-0.0673359	-0.99392	-0.213245	0
317.35	0.0820884	0.214142	0.989622	0.174556	-0.361101	0.164189	-0.0312892	-1.03746	-0.199543	0
317.36	0.0963085	0.215953	0.992961	0.140575	-0.35986	0.176148	-0.0201674	-1.07263	-0.162335	0
317.37	0.0951877	0.21498	0.995478	0.12589	-0.356447	0.184416	0.0114382	-1.10164	-0.120331	0
317.38	0.0937533	0.213933	0.997792	0.110732	-0.351747	0.18709	0.0435682	-1.12361	-0.0867455	0
317.39	0.0921075	0.213358	1.00016	0.0938727	-0.344201	0.190655	0.075016	-1.13928	-0.0601666	0
317.4	0.0807197	0.211091	1.00222	0.0840224	-0.325588	0.197888	0.117422	-1.14736	-0.038654	0
317.41	0.0923951	0.212589	1.00506	0.0506963	-0.317577	0.204948	0.129217	-1.1498	-0.019548	0
317.42	0.0779805	0.209463	1.00672	0.0441713	-0.295176	0.207443	0.172164	-1.14271	-0.000398251	0
317.43	0.0770644	0.20845	1.00877	0.0242664	-0.28139	0.210105	0.195315	-1.13003	0.0159047	0
317.44	0.0956809	0.210717	1.01168	-0.0180323	-0.275574	0.21295	0.188638	-1.11028	0.0349385	0
317.45	0.0969047	0.210573	1.01331	-0.0406185	-0.263026	0.21565	0.203443	-1.08442	0.0610019	0
317.46	0.0961816	0.209525	1.01447	-0.0592265	-0.252171	0.220646	0.22037	-1.05362	0.078303	0
317.47	0.0954808	0.208348	1.01555	-0.0769065	-0.242075	0.222496	0.23519	-1.01628	0.0902955	0
317.48	0.0923783	0.206746	1.01594	-0.0901374	-0.234235	0.221614	0.253023	-0.977397	0.0955685	0
317.49	0.0707168	0.202344	1.01491	-0.0830532	-0.216953	0.22496	0.292702	-0.930452	0.101628	0
317.5	0.0681833	0.201171	1.01488	-0.0960557	-0.211862	0.234944	0.303472	-0.878103	0.106414	0
317.51	0.066902	0.200315	1.01471	-0.111962	-0.204758	0.243795	0.308005	-0.817756	0.114087	0
317.52	0.0660719	0.19966	1.0142	-0.130584	-0.195006	0.24891	0.309461	-0.753204	0.119195	0
317.53	0.0660815	0.199186	1.01338	-0.150411	-0.185784	0.256535	0.306796	-0.683747	0.120709	0
317.54	0.0652351	0.198926	1.01213	-0.167954	-0.178133	0.265696	0.302789	-0.610693	0.116993	0
317.55	0.0638933	0.198404	1.01036	-0.181552	-0.176301	0.27809	0.298747	-0.537383	0.107739	0
317.56	0.0624767	0.198165	1.00832	-0.194986	-0.175526	0.290368	0.293429	-0.46111	0.101572	0
317.57	0.0614882	0.198394	1.00623	-0.211444	-0.170933	0.300622	0.285048	-0.382224	0.103059	0
317.58	0.0609522	0.198534	1.00409	-0.226439	-0.16867	0.309736	0.274517	-0.301172	0.10769	0
317.59	0.0609609	0.198903	1.00191	-0.242347	-0.166305	0.319412	0.26171	-0.221117	0.108464	0
317.6	0.0608533	0.19935	0.999596	-0.257471	-0.165929	0.33126	0.248397	-0.144017	0.108521	0
317.61	0.05901	0.199923	0.9969	-0.268882	-0.167946	0.340965	0.239801	-0.075289	0.111168	0
317.62	0.0760554	0.202269	0.995933	-0.301893	-0.178236	0.354633	0.206534	-0.016233	0.113994	0
317.63	0.0783694	0.203483	0.993849	-0.31979	-0.179527	0.365124	0.189967	0.0402373	0.116356	0
317.64	0.0792649	0.204329	0.991509	-0.332108	-0.188258	0.372981	0.180376	0.077925	0.126178	0
317.65	0.0796873	0.205058	0.989081	-0.341123	-0.202173	0.377819	0.177346	0.0937541	0.139067	0
317.66	0.0794989	0.205669	0.986754	-0.345058	-0.223935	0.385922	0.181484	0.0857748	0.15015	0
317.67	0.0795855	0.20637	0.984655	-0.347344	-0.248394	0.391119	0.188923	0.0598374	0.151498	0
317.68	0.0811396	0.207453	0.982817	-0.349727	-0.275861	0.393837	0.195937	0.0223866	0.144633	0
317.69	0.0830029	0.208708	0.981096	-0.35114	-0.305861	0.391111	0.20312	-0.0179322	0.129196	0
317.7	0.085757	0.210185	0.979495	-0.351682	-0.339505	0.387894	0.208845	-0.0546214	0.107738	0
317.71	0.0881715	0.211758	0.978319	-0.349955	-0.375876	0.379549	0.212301	-0.0827769	0.0772034	0
317.72	0.0896438	0.213243	0.977297	-0.341886	-0.421025	0.364119	0.214028	-0.105148	0.0337099	0
317.73	0.0921796	0.215297	0.976495	-0.33325	-0.469234	0.341308	0.209704	-0.120686	-0.00929561	0
317.74	0.0946395	0.217281	0.975839	-0.320163	-0.523999	0.31253	0.206763	-0.138901	-0.0347012	0
317.75	0.097598	0.219047	0.975815	-0.303032	-0.583447	0.268412	0.205567	-0.163484	-0.0390634	0
